<?xml version="1.0" encoding="utf-8"?>
<svg xmlns="http://www.w3.org/2000/svg" xmlns:xlink="http://www.w3.org/1999/xlink" version="1.1" style="width:0;height:0;position:absolute;overflow:hidden;">
  <defs>
<symbol id="icons-arrowLeft" viewBox="0 0 575.16796875 898.176025390625"><path d="M0 447.232L447.168 0l128 131.008-321.151 318.016L575.168 769.92 446.912 898.176 0 447.232z"/></symbol>
<symbol id="icons-arrowRight" viewBox="0 0 575.16796875 898.112060546875"><path d="M128.255 898.112L.063 769.856 321.151 448.96 0 131.008 128 0l447.168 447.232-446.912 450.88z"/></symbol>
<symbol id="icons-trash" viewBox="0 0 960 1024"><path d="M896 256h-64v640s-1.984 128-128 128H256c-129.984 0-128-128-128-128V256H64c-35.328 0-64-28.672-64-64s28.672-64 64-64h320V96c0-53.056 42.944-96 96-96 52.992 0 96 42.944 96 96v32h320c35.392 0 64 28.608 64 64s-28.608 64-64 64zm-192 0H256v640h448V256zm-320 64c35.328 0 64 28.672 64 64v384c0 35.392-28.672 64-64 64s-64-28.608-64-64V384c0-35.328 28.672-64 64-64zm192 0c35.392 0 64 28.672 64 64v384c0 35.392-28.608 64-64 64s-64-28.608-64-64V384c0-35.328 28.608-64 64-64z"/></symbol>
<symbol id="icons-folder" viewBox="0 0 1024 896.06396484375"><path d="M896 128s-278.016-.064-320-.064S486.017 0 448 0H128C57.344 0 0 57.28 0 128v640.064c0 126.656 128 128 128 128h768c70.656 0 128-57.344 128-128v-512C1024 185.344 966.656 128 896 128zm.064 640.064H128V128h254.017c40 0 89.984 128 128 128h386.048v512.064z"/></symbol>
<symbol id="icons-exit" viewBox="0 0 896 1024"><path d="M0 896V704h128v192.128h640V128H128v192H0V128C0 57.344 57.344 0 128 0h640c70.72 0 128 57.344 128 128v768c0 70.72-57.28 128-128 128H128C57.344 1024 0 966.72 0 896zm264.768-624c23.232-22.272 60.864-22.272 84.096 0l209.408 196.8c6.528 6.208 10.496 13.568 13.504 21.184.064.128.064.192.128.32a54.592 54.592 0 0 1 3.648 17.984c.256 2.24.448 4.416.256 6.72-.128 2.688-1.024 5.248-1.664 7.936-2.176 11.264-6.656 22.208-15.872 30.976l-209.408 196.8c-23.232 22.272-60.864 22.272-84.096 0-23.168-22.272-23.168-58.24 0-80.512L384 576H64c-34.112 0-64-32.064-64-64.64C0 478.848 29.888 448 64 448h320l-119.232-95.552c-23.232-22.144-23.232-58.304 0-80.448z"/></symbol>
<symbol id="icons-lock" viewBox="0 0 896 1024"><path d="M832 1024H64c-35.328 0-64-28.608-64-64.064V512c0-35.328 28.672-64 64-64h64V320C128 143.296 271.232 0 448 0s320 143.296 320 320v128h64c35.392 0 64 28.672 64 64v447.936c0 35.456-28.608 64.064-64 64.064zM640 320c0-105.984-85.952-192-192-192s-192 86.016-192 192v128h384V320z"/></symbol>
<symbol id="icons-tag" viewBox="0 0 1027.7760009765625 832"><path d="M1012.737 379.84l-241.217-352C759.552 10.432 739.84 0 718.72 0H64C28.608 0 0 28.672 0 64v704c0 35.328 28.608 64 64 64h654.72c21.12 0 40.896-10.368 52.8-27.84l241.216-352c15.04-21.76 15.04-50.56 0-72.32zM735.999 512c-52.992 0-96-43.008-96-96s43.008-96 96-96 96 43.008 96 96-43.008 96-96 96z"/></symbol>
<symbol id="icons-check" viewBox="0 0 1024.9599609375 773.2479248046875"><path d="M921.985 12.544C909.632 0 889.216 0 876.865 12.544L400.705 487.04c-12.48 12.544-32.833 12.544-45.249 0l-208.64-212.736c-6.144-6.208-14.272-9.408-22.336-9.472-8.256 0-16.576 3.008-22.848 9.472l-92.16 83.008C3.328 363.584 0 371.456 0 379.648c0 8.32 3.328 17.024 9.472 23.232L219.84 623.872c12.416 12.48 32.832 33.024 45.248 45.632l90.432 91.264c12.416 12.48 32.768 12.48 45.248 0L1012.48 149.44c12.48-12.48 12.48-33.088 0-45.632l-90.496-91.264z"/></symbol>
  </defs>
</svg>
